<svg version="1" xmlns="http://www.w3.org/2000/svg" width="682.667" height="682.667" viewBox="0 0 512.000000 512.000000"><path d="M185.3 43.2c-25.2 2.5-46 19.5-54.5 44.5l-2.3 6.8-.2 117c-.3 130.5-.7 121.5 6.8 137.3 5.7 11.8 16.3 22.4 28.1 28.1 15 7.3 8.5 6.9 135.4 7 110.3.1 114.4 0 121.8-1.9 12.1-3.1 20.9-8.2 30.1-17.4 6-6.1 9-10 11.7-15.6 7.4-15.4 7.1-8.4 7.1-133.5 0-61.6-.3-114.6-.7-117.7-2.7-22.6-19.6-43.2-42-51.4-3.5-1.2-9-2.6-12.2-3-7.8-.9-219.8-1.1-229.1-.2zm226.8 43.4c5.2 1.7 9.9 5.8 12.5 11.2 1.8 3.5 1.9 8.6 1.9 115.7v112l-2.7 4.5c-3.1 5.3-5.7 7.6-10.7 9.8-3.2 1.3-17.1 1.5-114.6 1.5-122.5 0-115 .4-121.5-6.3-6.6-6.8-6.2.8-6.4-120.5-.1-98.6.1-110.5 1.5-114.8 2.5-7.3 7.8-12 15.4-13.7 1.7-.3 51.8-.7 111.5-.7 91.7-.1 109.2.1 113.1 1.3z"/><path d="M78.7 134.5c-17.7 9.1-29.2 23.4-34.3 42.7-1.5 5.7-1.7 16.8-1.8 116.8 0 60.8.2 113.6.6 117.4 2.9 28.2 22.5 50.1 50.6 56.7 5.3 1.3 227.1 1.7 235.6.5 14.6-2.1 28.8-9.9 38.8-21.3 4.8-5.6 12.4-19 11.4-20.1-.4-.3-63.1-.6-139.4-.6-132.4-.1-138.9-.2-142.4-2-4.7-2.3-8.1-5.7-10.5-10.4-1.7-3.5-1.8-9.6-1.8-142.9 0-92.2-.3-139.3-1-139.3-.5 0-3.1 1.2-5.8 2.5z"/></svg>